<?xml version="1.0" encoding="UTF-8"?>
<svg version="1.1" xmlns="http://www.w3.org/2000/svg" width="1155" height="210">
<path d="M0 0 C381.15 0 762.3 0 1155 0 C1155 55.44 1155 110.88 1155 168 C773.85 168 392.7 168 0 168 C0 112.56 0 57.12 0 0 Z " fill="#FF005B" transform="translate(0,21)"/>
<path d="M0 0 C34.65 0 69.3 0 105 0 C105 27.72 105 55.44 105 84 C77.28 84 49.56 84 21 84 C21 90.93 21 97.86 21 105 C48.72 105 76.44 105 105 105 C105 111.93 105 118.86 105 126 C70.35 126 35.7 126 0 126 C0 84.42 0 42.84 0 0 Z " fill="#FFFFFF" transform="translate(399,42)"/>
<path d="M0 0 C34.65 0 69.3 0 105 0 C105 27.72 105 55.44 105 84 C77.28 84 49.56 84 21 84 C21 90.93 21 97.86 21 105 C48.72 105 76.44 105 105 105 C105 111.93 105 118.86 105 126 C70.35 126 35.7 126 0 126 C0 84.42 0 42.84 0 0 Z " fill="#FFFFFF" transform="translate(21,42)"/>
<path d="M0 0 C34.65 0 69.3 0 105 0 C105 6.93 105 13.86 105 21 C77.28 21 49.56 21 21 21 C21 27.93 21 34.86 21 42 C48.72 42 76.44 42 105 42 C105 69.72 105 97.44 105 126 C70.35 126 35.7 126 0 126 C0 119.07 0 112.14 0 105 C27.72 105 55.44 105 84 105 C84 91.14 84 77.28 84 63 C56.28 63 28.56 63 0 63 C0 42.21 0 21.42 0 0 Z " fill="#FFFFFF" transform="translate(777,42)"/>
<path d="M0 0 C6.93 0 13.86 0 21 0 C21 34.65 21 69.3 21 105 C41.79 105 62.58 105 84 105 C84 70.35 84 35.7 84 0 C90.93 0 97.86 0 105 0 C105 41.58 105 83.16 105 126 C70.35 126 35.7 126 0 126 C0 84.42 0 42.84 0 0 Z " fill="#FFFFFF" transform="translate(1029,42)"/>
<path d="M0 0 C6.93 0 13.86 0 21 0 C21 34.65 21 69.3 21 105 C41.79 105 62.58 105 84 105 C84 70.35 84 35.7 84 0 C90.93 0 97.86 0 105 0 C105 41.58 105 83.16 105 126 C70.35 126 35.7 126 0 126 C0 84.42 0 42.84 0 0 Z " fill="#FFFFFF" transform="translate(651,42)"/>
<path d="M0 0 C34.65 0 69.3 0 105 0 C105 41.58 105 83.16 105 126 C98.07 126 91.14 126 84 126 C84 91.35 84 56.7 84 21 C63.21 21 42.42 21 21 21 C21 55.65 21 90.3 21 126 C14.07 126 7.14 126 0 126 C0 84.42 0 42.84 0 0 Z " fill="#FFFFFF" transform="translate(525,42)"/>
<path d="M0 0 C6.93 0 13.86 0 21 0 C21 20.79 21 41.58 21 63 C27.93 63 34.86 63 42 63 C42 76.86 42 90.72 42 105 C48.93 105 55.86 105 63 105 C63 91.14 63 77.28 63 63 C69.93 63 76.86 63 84 63 C84 42.21 84 21.42 84 0 C90.93 0 97.86 0 105 0 C105 27.72 105 55.44 105 84 C98.07 84 91.14 84 84 84 C84 97.86 84 111.72 84 126 C63.21 126 42.42 126 21 126 C21 112.14 21 98.28 21 84 C14.07 84 7.14 84 0 84 C0 56.28 0 28.56 0 0 Z " fill="#FFFFFF" transform="translate(273,42)"/>
<path d="M0 0 C34.65 0 69.3 0 105 0 C105 41.58 105 83.16 105 126 C98.07 126 91.14 126 84 126 C84 91.35 84 56.7 84 21 C63.21 21 42.42 21 21 21 C21 55.65 21 90.3 21 126 C14.07 126 7.14 126 0 126 C0 84.42 0 42.84 0 0 Z " fill="#FFFFFF" transform="translate(147,42)"/>
<path d="M0 0 C6.93 0 13.86 0 21 0 C21 34.65 21 69.3 21 105 C48.72 105 76.44 105 105 105 C105 111.93 105 118.86 105 126 C70.35 126 35.7 126 0 126 C0 84.42 0 42.84 0 0 Z " fill="#FFFFFF" transform="translate(903,42)"/>
<path d="M0 0 C20.79 0 41.58 0 63 0 C63 13.86 63 27.72 63 42 C42.21 42 21.42 42 0 42 C0 28.14 0 14.28 0 0 Z " fill="#FF005B" transform="translate(420,63)"/>
<path d="M0 0 C20.79 0 41.58 0 63 0 C63 13.86 63 27.72 63 42 C42.21 42 21.42 42 0 42 C0 28.14 0 14.28 0 0 Z " fill="#FF005B" transform="translate(42,63)"/>
</svg>
