<?xml version="1.0" encoding="UTF-8"?>
<svg version="1.1" xmlns="http://www.w3.org/2000/svg" width="215" height="50">
<path d="M0 0 C70.95 0 141.9 0 215 0 C215 16.5 215 33 215 50 C144.05 50 73.1 50 0 50 C0 33.5 0 17 0 0 Z " fill="#FF0059" transform="translate(0,0)"/>
<path d="M0 0 C8.25 0 16.5 0 25 0 C25 9.9 25 19.8 25 30 C16.75 30 8.5 30 0 30 C0 20.1 0 10.2 0 0 Z " fill="#FFFFFF" transform="translate(80,10)"/>
<path d="M0 0 C8.25 0 16.5 0 25 0 C25 4.95 25 9.9 25 15 C18.4 15 11.8 15 5 15 C5 18.3 5 21.6 5 25 C11.6 25 18.2 25 25 25 C25 26.65 25 28.3 25 30 C16.75 30 8.5 30 0 30 C0 20.1 0 10.2 0 0 Z " fill="#FFFFFF" transform="translate(140,10)"/>
<path d="M0 0 C3.3 0 6.6 0 10 0 C10 1.65 10 3.3 10 5 C11.65 5 13.3 5 15 5 C15 3.35 15 1.7 15 0 C18.3 0 21.6 0 25 0 C25 9.9 25 19.8 25 30 C23.35 30 21.7 30 20 30 C20 23.4 20 16.8 20 10 C18.35 10 16.7 10 15 10 C15 11.65 15 13.3 15 15 C13.35 15 11.7 15 10 15 C10 13.35 10 11.7 10 10 C8.35 10 6.7 10 5 10 C5 16.6 5 23.2 5 30 C3.35 30 1.7 30 0 30 C0 20.1 0 10.2 0 0 Z " fill="#FFFFFF" transform="translate(110,10)"/>
<path d="M0 0 C1.65 0 3.3 0 5 0 C5 3.3 5 6.6 5 10 C9.95 10 14.9 10 20 10 C20 6.7 20 3.4 20 0 C21.65 0 23.3 0 25 0 C25 9.9 25 19.8 25 30 C23.35 30 21.7 30 20 30 C20 25.05 20 20.1 20 15 C15.05 15 10.1 15 5 15 C5 19.95 5 24.9 5 30 C3.35 30 1.7 30 0 30 C0 20.1 0 10.2 0 0 Z " fill="#FFFFFF" transform="translate(50,10)"/>
<path d="M0 0 C4.95 0 9.9 0 15 0 C15 6.6 15 13.2 15 20 C10.05 20 5.1 20 0 20 C0 13.4 0 6.8 0 0 Z " fill="#FF0059" transform="translate(85,15)"/>
<path d="M0 0 C4.95 0 9.9 0 15 0 C15 1.65 15 3.3 15 5 C10.05 5 5.1 5 0 5 C0 3.35 0 1.7 0 0 Z " fill="#FF0059" transform="translate(145,15)"/>
</svg>
