<?xml version="1.0" encoding="UTF-8"?>
<svg version="1.1" xmlns="http://www.w3.org/2000/svg" width="215" height="50">
<path d="M0 0 C70.95 0 141.9 0 215 0 C215 16.5 215 33 215 50 C144.05 50 73.1 50 0 50 C0 33.5 0 17 0 0 Z " fill="#FFFFFF" transform="translate(0,0)"/>
<path d="M0 0 C8.25 0 16.5 0 25 0 C25 9.9 25 19.8 25 30 C16.75 30 8.5 30 0 30 C0 20.1 0 10.2 0 0 Z " fill="#FF0059" transform="translate(65,10)"/>
<path d="M0 0 C8.25 0 16.5 0 25 0 C25 4.95 25 9.9 25 15 C23.35 15 21.7 15 20 15 C20 16.65 20 18.3 20 20 C21.65 20 23.3 20 25 20 C25 23.3 25 26.6 25 30 C23.35 30 21.7 30 20 30 C20 28.35 20 26.7 20 25 C18.35 25 16.7 25 15 25 C15 23.35 15 21.7 15 20 C13.35 20 11.7 20 10 20 C10 18.35 10 16.7 10 15 C8.35 15 6.7 15 5 15 C5 19.95 5 24.9 5 30 C3.35 30 1.7 30 0 30 C0 20.1 0 10.2 0 0 Z " fill="#FF0059" transform="translate(95,10)"/>
<path d="M0 0 C1.65 0 3.3 0 5 0 C5 8.25 5 16.5 5 25 C6.65 25 8.3 25 10 25 C10 16.75 10 8.5 10 0 C11.65 0 13.3 0 15 0 C15 8.25 15 16.5 15 25 C16.65 25 18.3 25 20 25 C20 16.75 20 8.5 20 0 C21.65 0 23.3 0 25 0 C25 9.9 25 19.8 25 30 C16.75 30 8.5 30 0 30 C0 20.1 0 10.2 0 0 Z " fill="#FF0059" transform="translate(35,10)"/>
<path d="M0 0 C8.25 0 16.5 0 25 0 C25 1.65 25 3.3 25 5 C18.4 5 11.8 5 5 5 C5 6.65 5 8.3 5 10 C11.6 10 18.2 10 25 10 C25 16.6 25 23.2 25 30 C16.75 30 8.5 30 0 30 C0 28.35 0 26.7 0 25 C6.6 25 13.2 25 20 25 C20 21.7 20 18.4 20 15 C13.4 15 6.8 15 0 15 C0 10.05 0 5.1 0 0 Z " fill="#FF0059" transform="translate(155,10)"/>
<path d="M0 0 C1.65 0 3.3 0 5 0 C5 3.3 5 6.6 5 10 C8.3 10 11.6 10 15 10 C15 8.35 15 6.7 15 5 C16.65 5 18.3 5 20 5 C20 3.35 20 1.7 20 0 C21.65 0 23.3 0 25 0 C25 3.3 25 6.6 25 10 C23.35 10 21.7 10 20 10 C20 11.65 20 13.3 20 15 C21.65 15 23.3 15 25 15 C25 19.95 25 24.9 25 30 C23.35 30 21.7 30 20 30 C20 26.7 20 23.4 20 20 C18.35 20 16.7 20 15 20 C15 18.35 15 16.7 15 15 C11.7 15 8.4 15 5 15 C5 19.95 5 24.9 5 30 C3.35 30 1.7 30 0 30 C0 20.1 0 10.2 0 0 Z " fill="#FF0059" transform="translate(125,10)"/>
<path d="M0 0 C4.95 0 9.9 0 15 0 C15 6.6 15 13.2 15 20 C10.05 20 5.1 20 0 20 C0 13.4 0 6.8 0 0 Z " fill="#FFFFFF" transform="translate(70,15)"/>
<path d="M0 0 C4.95 0 9.9 0 15 0 C15 1.65 15 3.3 15 5 C10.05 5 5.1 5 0 5 C0 3.35 0 1.7 0 0 Z " fill="#FFFFFF" transform="translate(100,15)"/>
</svg>
